{
  "accessors": [
    {
      "bufferView": 2,
      "componentType": 5126,
      "count": 170,
      "max": [
        1.4150848388671875,
        2.9981791973114014,
        26.121524810791016
      ],
      "min": [
        -1.4150853157043457,
        -2.998175621032715,
        -0.3877716064453125
      ],
      "type": "VEC3"
    },
    {
      "bufferView": 2,
      "byteOffset": 2040,
      "componentType": 5126,
      "count": 170,
      "max": [
        0.9999999403953552,
        0.9998249411582947,
        0.1736728847026825
      ],
      "min": [
        -0.9999999403953552,
        -0.9998248219490051,
        -0.07329905033111572
      ],
      "type": "VEC3"
    },
    {
      "bufferView": 1,
      "componentType": 5126,
      "count": 170,
      "max": [
        0.96683269739151,
        0.9687471389770508
      ],
      "min": [
        0.030684033408761024,
        0.47002798318862915
      ],
      "type": "VEC2"
    },
    {
      "bufferView": 0,
      "componentType": 5125,
      "count": 768,
      "type": "SCALAR"
    },
    {
      "bufferView": 2,
      "byteOffset": 4080,
      "componentType": 5126,
      "count": 6864,
      "max": [
        6.396153450012207,
        11.707940101623535,
        37.66392517089844
      ],
      "min": [
        -4.902027606964111,
        -11.707940101623535,
        -7.636997222900391
      ],
      "type": "VEC3"
    },
    {
      "bufferView": 2,
      "byteOffset": 86448,
      "componentType": 5126,
      "count": 6864,
      "max": [
        1.0,
        1.0,
        1.0
      ],
      "min": [
        -1.0,
        -0.9999982118606567,
        -1.0
      ],
      "type": "VEC3"
    },
    {
      "bufferView": 1,
      "byteOffset": 1360,
      "componentType": 5126,
      "count": 6864,
      "max": [
        0.9990000128746033,
        0.9986012578010559
      ],
      "min": [
        0.0010000000474974513,
        0.0010000000474974513
      ],
      "type": "VEC2"
    },
    {
      "bufferView": 0,
      "byteOffset": 3072,
      "componentType": 5125,
      "count": 23352,
      "type": "SCALAR"
    },
    {
      "bufferView": 2,
      "byteOffset": 168816,
      "componentType": 5126,
      "count": 222,
      "max": [
        24.36764907836914,
        4.857365131378174,
        0.5519886612892151
      ],
      "min": [
        -136.36058044433594,
        -2.532398223876953,
        -0.5519886612892151
      ],
      "type": "VEC3"
    },
    {
      "bufferView": 2,
      "byteOffset": 171480,
      "componentType": 5126,
      "count": 222,
      "max": [
        1.0,
        0.9999741315841675,
        0.9998665452003479
      ],
      "min": [
        -0.18600690364837646,
        -0.9989545941352844,
        -0.9998665452003479
      ],
      "type": "VEC3"
    },
    {
      "bufferView": 1,
      "byteOffset": 56272,
      "componentType": 5126,
      "count": 222,
      "max": [
        1.4255907535552979,
        1.0022636651992798
      ],
      "min": [
        -0.4255908727645874,
        -0.002263784408569336
      ],
      "type": "VEC2"
    },
    {
      "bufferView": 0,
      "byteOffset": 96480,
      "componentType": 5125,
      "count": 762,
      "type": "SCALAR"
    }
  ],
  "asset": {
    "extras": {
      "author": "Yudha Mfr (https://sketchfab.com/yudhamfr)",
      "license": "CC-BY-4.0 (http://creativecommons.org/licenses/by/4.0/)",
      "source": "https://sketchfab.com/3d-models/swiss-saber-7e5a6d4ae4534d71babf3163ffe5c271",
      "title": "Swiss Saber"
    },
    "generator": "Sketchfab-12.68.0",
    "version": "2.0"
  },
  "bufferViews": [
    {
      "buffer": 0,
      "byteLength": 99528,
      "name": "floatBufferViews",
      "target": 34963
    },
    {
      "buffer": 0,
      "byteLength": 58048,
      "byteOffset": 99528,
      "byteStride": 8,
      "name": "floatBufferViews",
      "target": 34962
    },
    {
      "buffer": 0,
      "byteLength": 174144,
      "byteOffset": 157576,
      "byteStride": 12,
      "name": "floatBufferViews",
      "target": 34962
    }
  ],
  "buffers": [
    {
      "byteLength": 331720,
      "uri": "scene.bin"
    }
  ],
  "images": [
    {
      "uri": "textures/Material_25_baseColor.jpeg"
    },
    {
      "uri": "textures/02_-_Default_baseColor.jpeg"
    },
    {
      "uri": "textures/02_-_Default_metallicRoughness.png"
    }
  ],
  "materials": [
    {
      "doubleSided": true,
      "name": "Material_25",
      "pbrMetallicRoughness": {
        "baseColorTexture": {
          "index": 0
        },
        "metallicFactor": 0.0,
        "roughnessFactor": 0.6
      }
    },
    {
      "doubleSided": true,
      "name": "02_-_Default",
      "pbrMetallicRoughness": {
        "baseColorTexture": {
          "index": 1
        },
        "metallicRoughnessTexture": {
          "index": 2
        },
        "roughnessFactor": 0.5105192313264385
      }
    }
  ],
  "meshes": [
    {
      "name": "Box001_Material #25_0",
      "primitives": [
        {
          "attributes": {
            "NORMAL": 1,
            "POSITION": 0,
            "TEXCOORD_0": 2
          },
          "indices": 3,
          "material": 0,
          "mode": 4
        }
      ]
    },
    {
      "name": "Object002_02 - Default_0",
      "primitives": [
        {
          "attributes": {
            "NORMAL": 5,
            "POSITION": 4,
            "TEXCOORD_0": 6
          },
          "indices": 7,
          "material": 1,
          "mode": 4
        }
      ]
    },
    {
      "name": "Plane002_02 - Default_0",
      "primitives": [
        {
          "attributes": {
            "NORMAL": 9,
            "POSITION": 8,
            "TEXCOORD_0": 10
          },
          "indices": 11,
          "material": 1,
          "mode": 4
        }
      ]
    }
  ],
  "nodes": [
    {
      "children": [
        1
      ],
      "matrix": [
        1.1102230246251565e-15,
        7.771561172376096e-16,
        -1.0,
        0.0,
        -3.3306690738754696e-16,
        -1.0,
        -1.1102230246251565e-15,
        0.0,
        -1.0,
        6.661338147750941e-16,
        -7.771561172376094e-16,
        0.0,
        9.152771949768066,
        9.99882698059082,
        -0.846048057079313,
        1.0
      ],
      "name": "Sketchfab_model"
    },
    {
      "children": [
        2
      ],
      "matrix": [
        1.0,
        0.0,
        0.0,
        0.0,
        0.0,
        0.0,
        1.0,
        0.0,
        0.0,
        -1.0,
        0.0,
        0.0,
        0.0,
        0.0,
        0.0,
        1.0
      ],
      "name": "swiss saber.FBX"
    },
    {
      "children": [
        3
      ],
      "name": "RootNode"
    },
    {
      "children": [
        4,
        5,
        7
      ],
      "matrix": [
        4.371138795367102e-08,
        -1.3234889800848443e-23,
        -0.9999999999999991,
        0.0,
        1.6292068488171336e-07,
        0.9999999999999867,
        7.121489259567981e-15,
        0.0,
        0.9999999999999858,
        -1.6292068488171352e-07,
        4.371138795367102e-08,
        0.0,
        55.68815612792969,
        9.251705169677734,
        -1.2080417945981026e-06,
        1.0
      ],
      "name": "Box001"
    },
    {
      "mesh": 0,
      "name": "Box001_Material #25_0"
    },
    {
      "children": [
        6
      ],
      "matrix": [
        0.9999999999999929,
        3.1554436208840472e-30,
        -1.1920928955078042e-07,
        0.0,
        1.42108547152019e-14,
        0.9999999999999929,
        1.1920928955078039e-07,
        0.0,
        1.1920928955077957e-07,
        -1.1920928955078124e-07,
        0.9999999999999858,
        0.0,
        3.8146970382513246e-06,
        0.0,
        3.814697265625e-06,
        1.0
      ],
      "name": "Object002"
    },
    {
      "mesh": 1,
      "name": "Object002_02 - Default_0"
    },
    {
      "children": [
        8
      ],
      "matrix": [
        3.1391645849421224e-07,
        1.3234889800848443e-23,
        0.9999999999999507,
        0.0,
        -2.0861625671385236e-07,
        0.9999999999999782,
        6.5488076475393e-14,
        0.0,
        -0.999999999999929,
        -2.0861625671386263e-07,
        3.1391645849421224e-07,
        0.0,
        3.814697265625e-06,
        0.2462615966796875,
        -12.877445220947266,
        1.0
      ],
      "name": "Plane002"
    },
    {
      "mesh": 2,
      "name": "Plane002_02 - Default_0"
    }
  ],
  "samplers": [
    {
      "magFilter": 9729,
      "minFilter": 9987,
      "wrapS": 10497,
      "wrapT": 10497
    }
  ],
  "scene": 0,
  "scenes": [
    {
      "name": "Sketchfab_Scene",
      "nodes": [
        0
      ]
    }
  ],
  "textures": [
    {
      "sampler": 0,
      "source": 0
    },
    {
      "sampler": 0,
      "source": 1
    },
    {
      "sampler": 0,
      "source": 2
    }
  ]
}
